<?xml version="1.0" encoding="utf-8"?>
<!-- Generator: Adobe Illustrator 22.0.1, SVG Export Plug-In . SVG Version: 6.00 Build 0)  -->
<svg version="1.1" id="Слой_1" xmlns="http://www.w3.org/2000/svg" xmlns:xlink="http://www.w3.org/1999/xlink" x="0px" y="0px"
	 viewBox="0 0 566.9 566.9" style="enable-background:new 0 0 566.9 566.9;" xml:space="preserve">
<style type="text/css">
	.st0{fill:#FFFFFF;}
	.st1{fill:#DA7A44;}
	.st2{opacity:0.2;fill:#B7B7B8;enable-background:new    ;}
	.st3{opacity:0.38;fill:#2F2E2E;enable-background:new    ;}
</style>
<g>
	<g>
		<path id="deconomy" class="st0" d="M193.8,268.9h1.4c0.1,0,0.2,0,0.3,0c3.1-0.3,5.7-1.6,7.9-3.9c2.1-2.2,3.3-5.2,3.2-8.3v-0.3
			c0-3.1-1.1-6-3.2-8.3c-2.2-2.3-4.8-3.6-7.9-3.9c-0.2,0-0.3,0-0.5,0h-9.2v5h8.5c0.4,0,0.8,0,1.2,0.1h0.1h0.1
			c0.5,0.1,0.9,0.2,1.4,0.4c0.1,0,0.1,0,0.1,0.1c0,0,0,0,0.1,0c0,0,0,0,0.1,0c1.4,0.7,2.5,1.6,3.2,2.8s1.1,2.6,1,4v0.2v0.1v0.1
			c-0.1,1.9-0.9,3.6-2.3,4.9c-1.3,1.3-3.1,2-4.9,2h-8.5v5L193.8,268.9L193.8,268.9z M239.9,263.9h-17.5v5h17.5V263.9z M228,259.2
			h5.6v-5h-11.3v5H228L228,259.2z M231.2,249.2h8.8v-5h-17.5v5H231.2L231.2,249.2z M272.3,263.9h-3.5c-1.8,0-3.6-0.7-4.9-2
			c-1.4-1.2-2.2-3-2.3-4.9v-0.2v-0.1v-0.1c0-1.4,0.3-2.8,1-4c0.7-1.3,1.8-2.2,3.1-2.8h0.1h0.1c0,0,0.1,0,0.1-0.1
			c0.4-0.2,0.9-0.3,1.4-0.4c0,0,0,0,0.1,0c0,0,0,0,0.1,0c0.4-0.1,0.8-0.1,1.2-0.1h3.5v-5h-4.4c-0.1,0-0.2,0-0.3,0
			c-3.1,0.3-5.7,1.6-7.9,3.9c-2.1,2.2-3.3,5.2-3.2,8.3v0.3c0,3.1,1.1,6,3.2,8.3c2.1,2.3,4.8,3.6,7.9,3.9c0.1,0,0.2,0,0.3,0h4.4
			L272.3,263.9L272.3,263.9z M308.2,251.8c-1.3-3-3.6-5.4-6.6-6.6c-3.1-1.3-6.6-1.3-9.7,0c-1.5,0.6-2.8,1.5-3.9,2.7
			c-1.1,1.1-2,2.5-2.7,4c-0.6,1.5-1,3.1-1,4.8c0,3.3,1.3,6.4,3.6,8.7c1.1,1.1,2.5,2,3.9,2.7c3.1,1.3,6.6,1.3,9.7,0
			c1.5-0.6,2.8-1.5,3.9-2.6c2.3-2.3,3.7-5.4,3.6-8.7C309.1,254.9,308.8,253.3,308.2,251.8L308.2,251.8L308.2,251.8z M303.5,259.5
			c-1.2,2.7-3.8,4.4-6.8,4.4c-1,0-2-0.2-2.8-0.6c-0.9-0.4-1.7-0.9-2.3-1.6c-0.7-0.7-1.2-1.4-1.6-2.3c-0.4-0.9-0.6-1.8-0.6-2.8
			c0-0.3,0-0.5,0-0.8c0-0.3,0.1-0.5,0.1-0.8c0.1-0.8,0.5-1.6,0.9-2.3c0.4-0.6,0.8-1.1,1.3-1.6c0.5-0.4,1-0.8,1.6-1.1
			c0.5-0.3,1.1-0.5,1.7-0.6c0.5-0.1,1.1-0.2,1.6-0.2c0,0,0.1,0,0.5,0c0.4,0.1,0.6,0.1,0.7,0.1c0.1,0,0.2,0,0.3,0.1
			c0.1,0,0.2,0,0.4,0c0.2,0,0.4,0.1,0.6,0.1c0.8,0.3,1.6,0.7,2.3,1.3c0.6,0.5,1.1,1.1,1.5,1.7c0.4,0.6,0.7,1.3,0.9,2
			c0.2,0.6,0.3,1.3,0.3,2C304.1,257.7,303.9,258.7,303.5,259.5L303.5,259.5L303.5,259.5z M344.3,244.2h-5.1V260l-10.9-15.8h-5.1
			v24.7h5.1v-15.8l10.9,15.8h5L344.3,244.2L344.3,244.2z M380.3,251.8c-1.3-3-3.6-5.4-6.6-6.6c-3.1-1.3-6.6-1.3-9.7,0
			c-1.5,0.6-2.8,1.5-3.9,2.7c-1.1,1.1-2,2.5-2.7,4c-0.6,1.5-1,3.1-1,4.8c0,3.3,1.3,6.4,3.6,8.7c1.1,1.1,2.5,2,3.9,2.7
			c3.1,1.3,6.6,1.3,9.7,0c1.5-0.6,2.8-1.5,3.9-2.6c2.3-2.3,3.7-5.4,3.6-8.7C381.2,254.9,380.9,253.3,380.3,251.8L380.3,251.8
			L380.3,251.8z M375.6,259.5c-1.2,2.7-3.8,4.4-6.8,4.4c-1,0-2-0.2-2.8-0.6c-0.9-0.4-1.7-0.9-2.3-1.6c-0.7-0.7-1.2-1.4-1.6-2.3
			c-0.4-0.9-0.6-1.8-0.6-2.8c0-0.3,0-0.5,0-0.8c0-0.3,0.1-0.5,0.1-0.8c0.1-0.8,0.5-1.6,0.9-2.3c0.4-0.6,0.8-1.1,1.3-1.6
			c0.5-0.4,1-0.8,1.6-1.1c0.5-0.3,1.1-0.5,1.7-0.6c0.5-0.1,1.1-0.2,1.6-0.2c0,0,0.1,0,0.5,0c0.4,0.1,0.6,0.1,0.7,0.1
			c0.1,0,0.2,0,0.3,0.1c0.1,0,0.2,0,0.4,0s0.4,0.1,0.6,0.1c0.8,0.3,1.6,0.7,2.3,1.3c0.6,0.5,1.1,1.1,1.5,1.7c0.4,0.6,0.7,1.3,0.9,2
			c0.2,0.6,0.3,1.3,0.3,2C376.2,257.7,376,258.7,375.6,259.5L375.6,259.5L375.6,259.5z M417.5,244.2h-4.8l-6.8,10.2l-6.8-10.2h-4.9
			v24.7h4.9v-15.8l6.8,10.1l6.7-10.1v15.8h4.9V244.2L417.5,244.2z M448.7,244.2l-6,10.1l-6-10.1h-5.9l9.4,15.8v8.9h5.1v-9l9.4-15.8
			h-6V244.2z"/>
		<path id="DigitalEconomyToday" class="st0" d="M185.7,290h4.2c3,0,5.1-1.8,5.1-4.6s-2.1-4.6-5.1-4.6h-4.2V290z M187.9,288.3v-5.7
			h2c1.8,0,3,1.1,3,2.9s-1.2,2.9-3,2.9L187.9,288.3L187.9,288.3z M204.1,281.9c0.8,0,1.3-0.5,1.3-1.2c0-0.6-0.5-1.1-1.3-1.1
			s-1.3,0.5-1.3,1.1C202.9,281.4,203.4,281.9,204.1,281.9L204.1,281.9z M203.1,290h2.1v-7.1h-2.1V290L203.1,290z M219.1,282.9v0.9
			c-0.5-0.7-1.4-1-2.4-1c-2,0-3.6,1.4-3.6,3.4c0,2.1,1.6,3.4,3.6,3.4c0.9,0,1.7-0.3,2.2-0.9v0.3c0,1.3-0.6,1.9-2.1,1.9
			c-0.9,0-1.9-0.3-2.5-0.8l-0.8,1.5c0.8,0.6,2.1,1,3.5,1c2.6,0,4-1.2,4-3.9v-5.9L219.1,282.9L219.1,282.9z M217.1,288
			c-1.1,0-1.9-0.7-1.9-1.7s0.8-1.7,1.9-1.7s1.9,0.7,1.9,1.7S218.2,288,217.1,288L217.1,288z M230.6,281.9c0.8,0,1.3-0.5,1.3-1.2
			c0-0.6-0.5-1.1-1.3-1.1s-1.3,0.5-1.3,1.1C229.3,281.4,229.8,281.9,230.6,281.9L230.6,281.9z M229.5,290h2.1v-7.1h-2.1V290
			L229.5,290z M244.1,288.3c-0.2,0.2-0.5,0.3-0.8,0.3c-0.6,0-0.9-0.3-0.9-0.9v-2.9h1.8v-1.6h-1.8v-1.8h-2.1v1.7h-1.1v1.6h1.1v2.9
			c0,1.7,1,2.5,2.7,2.5c0.6,0,1.3-0.1,1.7-0.4L244.1,288.3z M255.3,282.8c-1.1,0-2.3,0.3-3.1,0.9l0.7,1.4c0.6-0.4,1.3-0.7,2-0.7
			c1.1,0,1.6,0.5,1.6,1.4h-1.6c-2.2,0-3.1,0.9-3.1,2.1s1,2.2,2.7,2.2c1,0,1.8-0.3,2.2-1v0.9h1.9v-4
			C258.7,283.8,257.5,282.8,255.3,282.8L255.3,282.8z M255.2,288.8c-0.7,0-1.2-0.3-1.2-0.9c0-0.5,0.3-0.8,1.3-0.8h1.4v0.7
			C256.4,288.4,255.8,288.8,255.2,288.8L255.2,288.8z M267.2,290h2.1v-9.8h-2.1V290L267.2,290z M390.5,290h2.1v-7.5h3v-1.7h-8.1v1.7
			h3V290L390.5,290z M405.8,290.2c2.3,0,3.9-1.5,3.9-3.7s-1.6-3.7-3.9-3.7s-3.9,1.5-3.9,3.7S403.6,290.2,405.8,290.2L405.8,290.2z
			 M405.8,288.4c-1,0-1.8-0.7-1.8-2s0.8-2,1.8-2s1.8,0.7,1.8,2S406.8,288.4,405.8,288.4L405.8,288.4z M422.9,280.3v3.4
			c-0.5-0.6-1.3-0.9-2.1-0.9c-2,0-3.6,1.4-3.6,3.7s1.5,3.7,3.6,3.7c0.9,0,1.7-0.3,2.2-0.9v0.8h2v-9.8L422.9,280.3L422.9,280.3z
			 M421.1,288.4c-1,0-1.8-0.7-1.8-2s0.8-2,1.8-2s1.8,0.7,1.8,2S422.1,288.4,421.1,288.4L421.1,288.4z M436.3,282.8
			c-1.1,0-2.3,0.3-3.1,0.9l0.7,1.4c0.6-0.4,1.3-0.7,2-0.7c1.1,0,1.6,0.5,1.6,1.4h-1.6c-2.2,0-3.1,0.9-3.1,2.1s1,2.2,2.7,2.2
			c1,0,1.8-0.3,2.2-1v0.9h1.9v-4C439.7,283.8,438.5,282.8,436.3,282.8L436.3,282.8z M436.1,288.8c-0.7,0-1.2-0.3-1.2-0.9
			c0-0.5,0.3-0.8,1.3-0.8h1.4v0.7C437.4,288.4,436.8,288.8,436.1,288.8L436.1,288.8z M453.1,282.9l-2,4.8l-2-4.8H447l3.1,7.2v0.1
			c-0.3,0.6-0.6,0.9-1.2,0.9c-0.4,0-0.8-0.2-1.2-0.4l-0.8,1.5c0.5,0.4,1.3,0.6,2,0.6c1.3,0,2.3-0.5,2.9-2.2l3.2-7.5h-1.9V282.9z"/>
		<polygon class="st1" points="280,288.3 280,286.3 284.3,286.3 284.3,284.5 280,284.5 280,282.5 284.9,282.5 284.9,280.8 
			277.9,280.8 277.9,290 285.1,290 285.1,288.3 		"/>
		<path class="st1" d="M296.6,290.2c1.5,0,2.7-0.7,3.2-1.8l-1.6-0.9c-0.3,0.6-0.9,1-1.6,1c-1,0-1.9-0.7-1.9-2s0.8-2,1.9-2
			c0.7,0,1.3,0.4,1.6,1l1.6-0.9c-0.5-1.2-1.7-1.8-3.2-1.8c-2.3,0-4,1.5-4,3.7S294.3,290.2,296.6,290.2L296.6,290.2z"/>
		<path class="st1" d="M310.9,282.8c-2.3,0-3.9,1.5-3.9,3.7c0,2.1,1.7,3.7,3.9,3.7l0,0c2.3,0,3.9-1.5,3.9-3.7
			S313.1,282.8,310.9,282.8z M310.9,288.4L310.9,288.4c-1,0-1.8-0.7-1.8-2c0-1.2,0.8-2,1.8-2s1.8,0.7,1.8,2S311.9,288.4,310.9,288.4
			z"/>
		<path class="st1" d="M327.1,282.8c-1,0-1.8,0.3-2.4,0.9v-0.8h-2v7.1h2.1v-3.5c0-1.3,0.7-1.9,1.7-1.9c0.9,0,1.4,0.5,1.4,1.7v3.8
			h2.1V286C330,283.8,328.7,282.8,327.1,282.8L327.1,282.8z"/>
		<path class="st1" d="M341.9,282.8c-2.3,0-3.9,1.5-3.9,3.7c0,2.1,1.7,3.7,3.9,3.7l0,0c2.3,0,3.9-1.5,3.9-3.7
			S344.2,282.8,341.9,282.8z M341.9,288.4L341.9,288.4c-1,0-1.8-0.7-1.8-2s0.8-2,1.8-2s1.8,0.7,1.8,2S343,288.4,341.9,288.4z"/>
		<path class="st1" d="M362.9,282.8c-1,0-1.9,0.4-2.6,1.2c-0.5-0.8-1.3-1.2-2.3-1.2c-0.9,0-1.7,0.3-2.2,0.9v-0.8h-2v7.1h2.1v-3.6
			c0-1.3,0.6-1.9,1.6-1.9c0.9,0,1.3,0.5,1.3,1.7v3.8h2.1v-3.6c0-1.3,0.6-1.9,1.6-1.9c0.8,0,1.3,0.5,1.3,1.7v3.8h2.1v-4
			C365.8,283.8,364.6,282.8,362.9,282.8L362.9,282.8z"/>
		<path class="st1" d="M379.2,282.9l-2,4.8l-2-4.8h-2.1l3.1,7.2v0.1c-0.3,0.6-0.6,0.9-1.2,0.9c-0.4,0-0.8-0.2-1.2-0.4l-0.8,1.5
			c0.5,0.4,1.3,0.6,2,0.6c1.3,0,2.3-0.5,2.9-2.2l3.2-7.5h-1.9V282.9z"/>
	</g>
	<path id="Эллипс_1_копия_2_1_" class="st2" d="M165.7,261.8c2.8,0,5,2.2,5,5s-2.2,5-5,5s-5-2.2-5-5
		C160.7,264.1,162.9,261.8,165.7,261.8z M140.5,261.8c2.8,0,5,2.2,5,5s-2.2,5-5,5s-5-2.2-5-5C135.5,264.1,137.7,261.8,140.5,261.8
		L140.5,261.8L140.5,261.8z M115.2,261.8c2.8,0,5,2.2,5,5s-2.2,5-5,5s-5-2.2-5-5C110.2,264.1,112.5,261.8,115.2,261.8L115.2,261.8
		L115.2,261.8z M115.1,287.3c2.8,0,5,2.2,5,5s-2.2,5-5,5s-5-2.2-5-5S112.3,287.3,115.1,287.3L115.1,287.3z M140.5,287.3
		c2.8,0,5,2.2,5,5s-2.2,5-5,5s-5-2.2-5-5S137.7,287.3,140.5,287.3L140.5,287.3z M165.7,287.3c2.8,0,5,2.2,5,5s-2.2,5-5,5s-5-2.2-5-5
		S162.9,287.3,165.7,287.3L165.7,287.3z M115.2,236.9c2.8,0,5,2.2,5,5s-2.2,5-5,5s-5-2.2-5-5C110.2,239.2,112.5,236.9,115.2,236.9
		L115.2,236.9z M140.5,236.9c2.8,0,5,2.2,5,5s-2.2,5-5,5s-5-2.2-5-5C135.5,239.2,137.7,236.9,140.5,236.9L140.5,236.9z M165.6,236.9
		c2.8,0,5,2.2,5,5s-2.2,5-5,5s-5-2.2-5-5C160.5,239.2,162.8,236.9,165.6,236.9L165.6,236.9L165.6,236.9z"/>
	<path class="st1" d="M139.9,291.2h-20V252c0-0.3,8.6,2.6,13-8.7h7c12.5-0.4,22.6,9.6,22.6,22.1v3.4
		C162.4,281.2,152.3,291.2,139.9,291.2z M130.9,280.2h9c6.3,0,11.5-5.2,11.5-11.5v-3.4c0-6.3-5.2-11.5-11.5-11.5h-9V280.2z"/>
	<path class="st3" d="M119.9,252.6c0,0,7,0.9,8.7,2.9c0,0,4.4-10.7,8.8-12.2c0,0-1.3,0-3.5,0c-3.9,0.5-14,8.5-14,8.7
		C119.9,252.1,119.9,252.3,119.9,252.6z"/>
	<path class="st0" d="M119.9,252c0,0,6.7,0.5,8.5,2.5c0,0,4.9-10.8,8.7-11.2c0,0-1.1-0.4-3.5-0.1C129.7,243.6,123.9,245.7,119.9,252
		z"/>
</g>
</svg>
